<?xml version="1.0" encoding="UTF-8" standalone="no"?>
<svg
   version="1.0"
   width="316"
   height="316"
   viewBox="0 0 237 237"
   preserveAspectRatio="xMidYMid meet"
   id="svg107"
   sodipodi:docname="2.svg"
   inkscape:version="1.1 (c68e22c387, 2021-05-23)"
   xmlns:inkscape="http://www.inkscape.org/namespaces/inkscape"
   xmlns:sodipodi="http://sodipodi.sourceforge.net/DTD/sodipodi-0.dtd"
   xmlns="http://www.w3.org/2000/svg"
   xmlns:svg="http://www.w3.org/2000/svg">
  <defs
     id="defs111" />
  <sodipodi:namedview
     id="namedview109"
     pagecolor="#ffffff"
     bordercolor="#666666"
     borderopacity="1.0"
     inkscape:pageshadow="2"
     inkscape:pageopacity="0.0"
     inkscape:pagecheckerboard="0"
     inkscape:document-units="pt"
     showgrid="false"
     units="px"
     inkscape:showpageshadow="false"
     inkscape:zoom="1.4254587"
     inkscape:cx="210.80933"
     inkscape:cy="165.20998"
     inkscape:window-width="1366"
     inkscape:window-height="705"
     inkscape:window-x="-8"
     inkscape:window-y="-8"
     inkscape:window-maximized="1"
     inkscape:current-layer="svg107" />
  <metadata
     id="metadata9">
Created by potrace 1.16, written by Peter Selinger 2001-2019
</metadata>
  <g
     transform="matrix(0.01968276,0,0,-0.01971173,0.86708746,235.32492)"
     fill="#000000"
     stroke="none"
     id="g105"
     style="fill:#000080;stroke-width:5.07686">
    <path
       d="m 6204,11781 c -112,-41 -140,-67 -191,-176 -27,-58 -28,-65 -28,-220 1,-141 3,-165 22,-207 26,-58 105,-143 155,-169 47,-24 122,-25 202,-2 72,20 116,61 166,153 l 35,65 v 165 c 0,157 -1,168 -26,221 -69,146 -208,216 -335,170 z m 136,-119 c 84,-42 127,-150 117,-297 -10,-147 -58,-229 -150,-254 -39,-11 -50,-11 -81,4 -85,40 -136,142 -136,270 0,211 119,343 250,277 z"
       id="path11"
       style="fill:#000080;stroke-width:5.07686" />
    <path
       d="m 5369,11746 c -3,-3 -66,-12 -140,-21 -73,-9 -142,-18 -151,-21 -36,-11 -35,-27 22,-502 17,-133 30,-248 30,-254 0,-13 125,-6 305,18 157,21 165,25 165,69 0,56 -24,61 -172,41 -166,-24 -190,-21 -205,24 -14,40 -17,169 -5,188 5,8 53,16 128,23 151,14 169,21 169,74 v 40 h -75 c -41,-1 -112,-3 -157,-5 -53,-3 -86,-1 -93,6 -14,14 -24,154 -13,171 4,6 55,16 113,23 58,7 124,14 148,17 53,6 75,34 64,78 -8,29 -11,30 -68,33 -33,2 -62,1 -65,-2 z"
       id="path13"
       style="fill:#000080;stroke-width:5.07686" />
    <path
       d="m 6826,11721 c -3,-5 -13,-60 -22,-122 -8,-63 -28,-184 -44,-269 -70,-373 -70,-380 -3,-380 29,0 36,5 48,34 8,19 24,85 35,147 11,62 27,120 35,128 15,15 36,13 239,-26 l 29,-5 -6,57 c -3,31 -8,59 -11,62 -2,3 -37,9 -76,14 -104,13 -149,28 -156,53 -7,27 13,114 32,144 18,27 48,28 187,6 97,-15 101,-15 114,2 8,11 13,30 11,44 -4,37 -51,55 -218,85 -80,14 -155,28 -167,30 -12,3 -24,1 -27,-4 z"
       id="path15"
       style="fill:#000080;stroke-width:5.07686" />
    <path
       d="m 4785,11661 c -11,-5 -94,-25 -185,-46 -200,-45 -212,-51 -208,-108 3,-39 5,-42 35,-45 17,-2 55,4 83,12 72,22 85,12 105,-76 18,-81 115,-496 121,-516 6,-22 47,-34 78,-22 27,10 28,12 21,58 -4,26 -29,137 -56,247 -28,110 -53,235 -56,277 l -6,77 54,15 c 30,8 63,16 73,18 32,5 41,31 27,77 -10,35 -16,41 -39,40 -15,0 -36,-4 -47,-8 z"
       id="path17"
       style="fill:#000080;stroke-width:5.07686" />
    <path
       d="m 7746,11483 c -14,-21 -28,-51 -31,-68 -4,-16 -22,-70 -41,-120 -18,-49 -59,-157 -90,-240 -31,-82 -63,-168 -72,-191 -18,-47 -12,-70 22,-86 20,-8 29,-8 40,1 15,13 136,309 136,333 0,26 64,158 77,158 20,0 17,-103 -6,-181 -10,-36 -22,-99 -26,-140 -4,-41 -13,-99 -21,-130 -22,-90 -20,-108 21,-125 55,-23 71,-18 100,29 127,201 225,364 225,375 0,7 11,18 25,24 14,6 25,19 25,30 0,10 5,18 10,18 16,0 11,-41 -14,-110 -64,-179 -101,-272 -133,-344 l -36,-80 28,-23 c 17,-15 37,-23 54,-21 22,3 29,12 47,68 12,36 65,182 119,325 128,339 120,310 81,335 -18,11 -51,26 -74,34 -38,14 -41,13 -60,-7 -25,-27 -159,-234 -196,-304 -33,-60 -70,-98 -85,-88 -17,10 -13,72 19,287 24,157 27,204 18,215 -15,18 -102,63 -123,63 -8,0 -26,-17 -39,-37 z"
       id="path19"
       style="fill:#000080;stroke-width:5.07686" />
    <path
       d="m 4088,11469 c -22,-12 -23,-47 -4,-91 44,-101 164,-434 173,-479 11,-55 -92,-146 -152,-133 -79,17 -110,63 -196,299 -87,239 -104,275 -128,275 -37,0 -71,-19 -71,-40 0,-26 131,-381 176,-476 67,-143 156,-208 250,-185 69,18 119,46 174,99 62,60 68,85 46,191 -17,82 -137,437 -161,476 -7,11 -15,32 -19,48 -5,23 -12,27 -39,27 -17,0 -40,-5 -49,-11 z"
       id="path21"
       style="fill:#000080;stroke-width:5.07686" />
    <path
       d="m 3470,11209 c -25,-17 -116,-67 -203,-111 -88,-45 -161,-87 -164,-94 -6,-17 17,-64 39,-78 16,-10 28,-6 120,41 14,7 32,13 40,13 13,0 87,-133 233,-417 32,-61 68,-121 80,-133 l 23,-21 28,24 c 27,24 28,25 15,68 -14,46 -113,248 -200,408 -28,52 -51,102 -51,112 0,19 45,61 92,85 36,18 48,50 36,87 -16,46 -38,49 -88,16 z"
       id="path23"
       style="fill:#000080;stroke-width:5.07686" />
    <path
       d="m 8522,11165 c -29,-36 -267,-510 -297,-590 l -24,-64 27,-19 c 15,-11 69,-41 121,-67 52,-26 129,-68 170,-93 l 74,-45 24,27 c 29,34 29,67 1,93 -13,12 -78,49 -146,82 l -123,62 6,32 c 4,18 17,52 30,77 12,25 27,57 33,73 8,19 19,27 37,27 25,0 171,-72 223,-110 35,-26 55,-19 84,28 l 22,35 -27,21 c -15,12 -74,45 -132,75 -60,31 -107,62 -110,72 -7,22 28,105 57,136 29,31 44,29 121,-17 36,-22 69,-40 72,-40 3,0 23,-11 43,-25 47,-32 87,-33 108,-1 32,50 19,66 -117,136 -69,36 -143,75 -164,88 -61,37 -88,39 -113,7 z"
       id="path25"
       style="fill:#000080;stroke-width:5.07686" />
    <path
       d="m 2893,10875 -28,-24 24,-43 c 13,-24 71,-119 129,-213 58,-93 134,-218 170,-277 57,-93 69,-108 92,-108 44,0 64,22 56,61 -5,28 -135,251 -255,439 -12,19 -44,70 -71,113 -55,85 -71,93 -117,52 z"
       id="path27"
       style="fill:#000080;stroke-width:5.07686" />
    <path
       d="m 9132,10823 c -16,-21 -93,-135 -172,-253 -78,-118 -151,-224 -161,-236 -10,-11 -19,-26 -19,-32 0,-7 -4,-12 -10,-12 -16,0 -42,-48 -36,-68 9,-26 127,-113 228,-167 l 86,-46 83,32 c 71,27 93,42 150,100 109,110 188,259 189,354 0,77 -17,123 -67,176 -40,42 -223,189 -236,189 -3,0 -19,-17 -35,-37 z m 121,-172 c 62,-40 100,-99 100,-156 0,-108 -162,-327 -260,-351 -34,-9 -64,1 -131,46 -89,59 -89,59 2,187 28,40 63,91 78,115 66,107 130,188 146,188 10,0 39,-13 65,-29 z"
       id="path29"
       style="fill:#000080;stroke-width:5.07686" />
    <path
       d="m 2572,10656 c -79,-56 -162,-118 -184,-137 -41,-35 -42,-36 -29,-67 26,-61 49,-60 140,6 24,18 47,32 52,32 9,0 109,-127 109,-139 0,-5 11,-22 24,-38 13,-15 71,-99 130,-185 63,-93 114,-158 123,-158 19,0 83,47 83,60 0,5 -22,37 -48,72 -41,54 -138,194 -279,403 l -34,50 60,55 c 49,45 61,62 61,86 0,32 -26,64 -51,64 -8,-1 -78,-47 -157,-104 z"
       id="path31"
       style="fill:#000080;stroke-width:5.07686" />
    <path
       d="m 5395,10714 c -298,-35 -693,-129 -961,-229 -50,-19 -97,-35 -104,-35 -6,0 -51,-17 -98,-39 -48,-21 -118,-51 -157,-67 -192,-77 -675,-339 -880,-477 -125,-84 -365,-267 -490,-374 -266,-225 -519,-518 -739,-856 -301,-460 -419,-700 -585,-1187 -88,-261 -146,-540 -171,-825 -21,-253 -8,-867 25,-1175 57,-518 225,-1080 449,-1505 264,-498 439,-755 722,-1060 143,-154 191,-199 344,-326 244,-203 466,-363 710,-509 155,-93 506,-271 658,-334 128,-53 489,-176 562,-191 19,-4 40,-11 46,-16 14,-12 311,-71 484,-98 224,-34 432,-52 680,-58 646,-16 1282,88 1845,302 39,14 90,33 115,41 48,15 70,25 330,154 230,115 594,335 759,458 41,31 86,63 102,71 54,31 322,264 457,399 319,319 493,556 746,1020 182,333 330,691 401,971 50,197 117,565 135,746 31,301 35,906 10,1168 -34,338 -141,756 -275,1072 -23,55 -46,111 -50,125 -11,38 -172,347 -263,504 -96,167 -350,535 -460,666 -111,133 -414,427 -557,541 -189,150 -378,285 -530,377 -164,100 -497,277 -646,344 -408,183 -930,341 -1252,378 -51,6 -114,16 -142,22 -81,18 -1070,20 -1220,2 z m 644,-319 c 16,-8 61,-49 100,-92 56,-61 86,-107 141,-215 39,-75 83,-173 100,-217 118,-320 366,-862 460,-1006 64,-97 160,-194 221,-223 89,-43 253,-17 300,48 11,14 30,76 44,139 29,132 50,175 87,179 96,11 289,-424 392,-883 65,-293 70,-346 70,-685 v -315 l -28,-85 c -16,-47 -48,-130 -73,-184 -48,-107 -49,-125 -11,-180 34,-49 110,-126 143,-143 143,-76 250,12 395,322 153,326 202,417 249,466 56,58 78,61 128,15 34,-31 53,-59 117,-177 44,-82 146,-142 241,-143 51,0 75,7 147,42 70,34 98,55 154,115 111,120 219,335 248,497 8,47 20,147 26,223 12,150 36,295 52,315 6,6 21,12 35,12 30,0 50,-44 101,-220 l 36,-125 v -250 -250 l -42,-145 c -122,-419 -130,-555 -36,-659 55,-61 95,-76 182,-67 83,9 140,38 244,126 135,114 164,107 155,-40 -13,-219 -167,-584 -356,-849 -201,-281 -381,-468 -561,-584 -161,-104 -199,-125 -320,-181 -431,-202 -625,-312 -729,-415 -67,-66 -86,-115 -85,-227 1,-67 3,-76 38,-122 38,-53 102,-92 147,-92 40,1 186,116 420,332 81,75 168,150 193,167 75,52 171,93 208,89 52,-5 60,-34 68,-244 9,-220 13,-233 109,-282 75,-38 113,-40 213,-12 173,48 268,3 268,-125 0,-61 -26,-119 -77,-175 -50,-56 -93,-74 -265,-111 -393,-83 -576,-161 -704,-301 -65,-72 -86,-116 -92,-199 -6,-81 9,-129 67,-218 44,-69 49,-96 26,-141 -55,-106 -364,-210 -761,-256 -188,-22 -499,-15 -669,15 -439,78 -739,196 -1020,401 -188,138 -267,190 -286,190 -29,0 -34,-54 -34,-345 1,-344 28,-627 77,-784 18,-57 31,-75 124,-173 57,-60 104,-117 104,-128 0,-26 -38,-50 -81,-50 -63,0 -203,57 -263,107 -24,20 -31,22 -42,11 -7,-7 -31,-84 -53,-170 -73,-286 -87,-286 -157,-3 -30,121 -46,171 -57,173 -8,2 -38,-13 -66,-33 -55,-40 -157,-79 -232,-90 -55,-8 -79,9 -79,57 0,32 5,37 140,163 29,27 61,68 71,91 29,64 57,197 71,334 16,163 18,824 2,840 -17,17 -52,-4 -198,-115 -298,-226 -509,-329 -861,-420 -264,-68 -362,-80 -650,-80 -312,0 -475,21 -735,97 -187,54 -322,138 -322,200 -1,26 22,79 72,168 27,50 30,64 30,143 0,112 -12,138 -104,232 -119,119 -339,218 -591,265 -299,55 -358,85 -424,217 -37,74 -22,167 34,211 36,29 102,29 240,1 97,-19 107,-20 157,-5 67,19 113,61 128,115 6,22 15,120 20,217 9,184 20,224 58,224 24,0 171,-72 227,-110 25,-17 134,-113 244,-214 207,-191 262,-235 320,-254 81,-28 121,-11 188,80 36,49 38,57 38,123 -1,94 -32,158 -121,246 -74,74 -175,133 -484,281 -266,128 -386,191 -493,262 -195,130 -339,263 -473,436 -203,264 -341,510 -426,763 -37,108 -42,135 -46,232 -6,172 13,179 148,60 106,-92 165,-120 260,-120 102,0 157,31 196,110 23,48 27,67 26,148 -1,113 -17,195 -90,441 l -56,191 v 200 c 0,226 14,328 66,483 30,88 63,142 87,142 34,0 71,-152 71,-291 0,-102 23,-230 65,-365 91,-292 241,-475 443,-540 119,-38 250,24 317,148 46,87 115,179 142,189 71,27 151,-73 268,-333 157,-350 203,-427 287,-489 38,-27 49,-30 98,-27 96,7 190,70 230,154 32,65 24,134 -29,244 -73,153 -76,173 -75,535 1,342 7,405 60,643 54,244 194,666 255,769 41,70 143,178 158,168 24,-14 53,-90 67,-173 26,-156 51,-191 149,-216 134,-33 197,-15 306,90 121,118 196,248 382,669 41,94 86,204 100,245 38,111 177,427 228,515 48,84 131,182 193,227 45,32 48,33 85,13 z"
       id="path33"
       style="fill:#000080;stroke-width:5.07686" />
    <path
       d="m 5898,9297 c -104,-40 -191,-118 -236,-215 -25,-52 -27,-68 -27,-177 0,-112 2,-124 29,-179 25,-52 78,-112 144,-168 25,-21 40,-89 50,-243 l 9,-119 -135,-146 c -86,-93 -161,-186 -209,-260 -117,-179 -115,-177 -263,-209 -86,-19 -163,-52 -206,-88 -53,-44 -72,-117 -88,-342 -12,-177 -12,-179 -44,-219 -18,-22 -32,-45 -32,-50 0,-20 21,-24 40,-7 12,11 63,22 167,35 158,21 194,30 294,80 118,58 153,112 182,282 17,98 64,205 152,348 60,96 119,169 129,160 8,-9 25,-245 28,-402 l 3,-148 -110,-108 c -165,-161 -245,-274 -279,-391 -20,-69 -21,-192 -1,-259 31,-103 137,-202 328,-304 l 97,-52 v -41 c 0,-22 7,-193 15,-380 8,-187 15,-368 15,-401 v -62 l -82,-63 c -165,-129 -208,-185 -208,-275 0,-65 23,-105 100,-177 58,-53 93,-76 180,-117 23,-11 28,-62 39,-436 6,-192 14,-387 17,-434 13,-165 24,-32 32,373 7,357 9,396 25,421 15,23 24,27 45,22 15,-4 88,-15 162,-26 74,-11 156,-26 181,-34 121,-38 238,-127 278,-212 23,-47 44,-56 61,-25 48,91 -62,250 -233,335 -76,38 -118,51 -242,76 -268,53 -259,45 -257,216 1,63 6,132 12,154 13,50 44,71 285,193 97,50 207,115 256,152 164,122 275,266 286,368 4,35 -2,56 -36,122 -53,106 -99,150 -233,225 -62,35 -153,87 -203,115 -49,29 -134,76 -188,105 -53,28 -104,61 -112,73 -18,26 -19,130 -5,387 15,264 4,236 133,338 62,48 175,135 252,192 83,61 189,153 261,224 149,150 167,187 172,363 5,142 -10,196 -80,294 -61,84 -157,156 -248,186 -61,20 -281,25 -377,9 -52,-9 -53,-8 -64,20 -22,60 -7,98 77,187 82,87 112,141 141,249 17,65 17,70 -1,140 -10,40 -27,93 -38,118 -24,56 -103,148 -142,167 -17,8 -43,21 -59,29 -39,22 -192,28 -239,11 z m 542,-1223 c 18,-4 54,-28 83,-54 l 52,-48 v -63 c -1,-121 -83,-233 -276,-379 -134,-101 -169,-113 -169,-57 0,55 21,490 26,522 3,26 12,33 62,52 80,31 154,40 222,27 z M 6327,5954 c 252,-125 304,-178 254,-260 -30,-50 -156,-158 -326,-279 -143,-103 -161,-113 -172,-98 -24,31 -13,683 12,723 12,19 49,5 232,-86 z"
       id="path35"
       style="fill:#000080;stroke-width:5.07686" />
    <path
       d="m 9678,10358 c -183,-211 -418,-508 -418,-527 0,-10 42,-47 61,-54 16,-5 58,40 184,198 28,34 102,124 165,200 144,171 148,179 122,214 -33,44 -54,39 -114,-31 z"
       id="path37"
       style="fill:#000080;stroke-width:5.07686" />
    <path
       d="m 2099,10261 c -48,-15 -136,-79 -158,-114 -26,-43 -47,-133 -38,-167 19,-74 100,-147 182,-164 36,-8 130,16 205,51 74,34 116,43 149,32 51,-18 77,-99 50,-152 -6,-12 -27,-39 -47,-59 -43,-46 -77,-49 -146,-14 -43,22 -48,23 -65,7 -11,-9 -26,-28 -35,-42 -15,-24 -15,-27 2,-42 34,-31 115,-60 167,-60 166,0 302,195 236,338 -26,56 -88,125 -128,141 -52,22 -140,17 -208,-12 -107,-46 -193,-74 -208,-68 -8,3 -22,20 -32,38 -25,45 -13,81 41,133 48,47 79,54 119,27 22,-14 27,-14 59,1 19,9 38,26 42,37 16,52 -111,112 -187,89 z"
       id="path39"
       style="fill:#000080;stroke-width:5.07686" />
    <path
       d="m 9889,10105 c -87,-32 -177,-106 -246,-202 -65,-92 -83,-146 -83,-252 0,-81 2,-91 29,-128 50,-69 135,-123 193,-123 38,0 124,22 156,39 39,21 24,111 -19,111 -10,0 -45,-7 -77,-16 -49,-13 -63,-14 -96,-2 -52,17 -80,63 -80,132 -1,69 23,112 110,205 149,159 222,180 314,92 40,-38 40,-38 40,-114 0,-70 2,-77 26,-96 15,-12 32,-21 39,-21 20,0 58,100 58,151 -1,94 -88,211 -172,230 -53,12 -151,10 -192,-6 z"
       id="path41"
       style="fill:#000080;stroke-width:5.07686" />
    <path
       d="m 1645,9819 c -14,-17 -24,-36 -22,-42 2,-6 79,-79 173,-162 93,-83 170,-158 172,-168 3,-14 -4,-17 -38,-17 -22,0 -56,6 -75,14 -19,8 -78,26 -132,41 -54,14 -125,34 -158,45 -115,35 -130,35 -172,-3 l -37,-35 29,-33 c 59,-68 487,-459 521,-477 22,-12 28,-11 45,4 21,19 24,45 9,74 -6,11 -73,74 -150,140 -132,114 -160,144 -160,169 0,20 52,11 226,-39 95,-27 203,-55 240,-62 l 67,-12 23,28 c 45,51 36,67 -117,198 -53,46 -165,147 -249,226 -83,78 -155,142 -160,142 -4,0 -20,-14 -35,-31 z"
       id="path43"
       style="fill:#000080;stroke-width:5.07686" />
    <path
       d="m 10515,9484 c -44,-19 -111,-46 -150,-59 -78,-26 -439,-174 -469,-191 -16,-10 -17,-14 -6,-35 7,-13 21,-34 32,-46 l 20,-21 61,29 c 96,45 113,42 174,-39 58,-78 83,-123 83,-150 0,-10 -13,-36 -29,-58 -16,-21 -32,-49 -35,-61 -8,-24 12,-71 39,-93 21,-18 43,3 96,94 24,39 102,164 175,277 138,215 174,278 174,303 0,19 -58,86 -74,86 -6,0 -47,-16 -91,-36 z m -15,-129 c 16,-19 13,-26 -53,-118 -31,-43 -59,-86 -62,-97 -10,-33 -49,-24 -88,19 -53,59 -62,80 -43,99 14,14 212,112 227,112 4,0 12,-7 19,-15 z"
       id="path45"
       style="fill:#000080;stroke-width:5.07686" />
    <path
       d="m 1208,9279 c -20,-11 -44,-79 -31,-88 60,-40 216,-154 382,-279 112,-84 210,-152 219,-150 24,5 55,53 48,76 -4,11 -97,87 -207,168 -421,312 -385,288 -411,273 z"
       id="path47"
       style="fill:#000080;stroke-width:5.07686" />
    <path
       d="m 10914,9035 c -28,-22 -403,-254 -482,-298 -95,-54 -116,-77 -108,-119 8,-38 174,-316 199,-332 13,-8 23,-4 47,19 34,32 38,60 14,86 -9,10 -40,58 -69,106 -39,65 -50,92 -44,105 16,29 89,82 289,206 243,151 245,153 232,178 -6,10 -21,29 -34,41 -22,21 -26,22 -44,8 z"
       id="path49"
       style="fill:#000080;stroke-width:5.07686" />
    <path
       d="m 885,8682 c -44,-28 -57,-46 -140,-187 -90,-155 -96,-187 -37,-212 20,-8 44,-21 52,-28 8,-8 78,-46 155,-85 77,-39 196,-102 265,-140 69,-38 133,-69 143,-69 24,-1 55,64 41,87 -6,9 -65,45 -132,80 -77,41 -124,72 -128,85 -5,14 4,30 34,59 49,50 82,57 257,58 h 131 l 27,42 c 15,23 27,47 27,54 0,18 -45,21 -219,11 -89,-5 -164,-7 -166,-5 -2,1 -8,35 -13,74 -12,89 -26,110 -98,154 -71,43 -152,52 -199,22 z m 164,-140 c 56,-45 59,-68 22,-148 -37,-78 -76,-134 -95,-134 -7,0 -21,9 -31,20 -10,12 -37,29 -59,39 -23,10 -49,27 -59,39 -18,20 -18,22 13,81 18,33 48,79 68,102 32,37 39,41 70,35 20,-3 52,-18 71,-34 z"
       id="path51"
       style="fill:#000080;stroke-width:5.07686" />
    <path
       d="m 11227,8180 c -40,-12 -92,-54 -117,-95 -20,-32 -23,-57 -30,-188 -4,-84 -11,-160 -15,-170 -18,-42 -104,-51 -150,-15 -31,24 -64,90 -65,128 0,14 18,51 40,84 44,65 48,81 24,114 -20,29 -33,28 -81,-7 -52,-38 -94,-123 -95,-192 0,-50 44,-163 80,-202 55,-61 189,-80 267,-39 108,57 117,78 126,278 4,101 12,170 19,179 6,8 27,19 46,25 47,16 77,-4 111,-75 30,-60 29,-63 -27,-151 -22,-34 -18,-57 15,-99 15,-18 17,-18 60,25 57,56 75,95 75,162 0,82 -63,203 -122,234 -29,15 -116,17 -161,4 z"
       id="path53"
       style="fill:#000080;stroke-width:5.07686" />
    <path
       d="m 555,8076 c -9,-14 -15,-39 -13,-56 3,-29 8,-33 63,-52 33,-11 143,-55 245,-98 297,-125 340,-141 373,-138 33,3 50,36 37,72 -7,20 -160,89 -400,180 -63,24 -150,60 -194,80 -43,20 -82,36 -87,36 -5,0 -16,-11 -24,-24 z"
       id="path55"
       style="fill:#000080;stroke-width:5.07686" />
    <path
       d="m 432,7767 c -11,-13 -42,-112 -42,-134 0,-17 70,-61 240,-152 239,-128 240,-150 3,-133 -87,7 -193,12 -236,12 h -78 l -19,-42 c -27,-59 -26,-104 3,-123 12,-8 155,-53 317,-99 162,-47 314,-92 338,-100 l 43,-16 15,36 c 11,27 12,39 4,49 -15,18 -100,50 -214,80 -240,63 -306,90 -289,118 6,11 129,4 358,-18 183,-19 215,-11 215,51 0,18 -7,39 -15,47 -14,14 -249,141 -397,215 -38,18 -68,40 -68,48 0,26 48,21 165,-16 252,-81 316,-100 334,-100 21,0 61,44 61,66 0,15 -203,82 -495,162 -231,64 -231,64 -243,49 z"
       id="path57"
       style="fill:#000080;stroke-width:5.07686" />
    <path
       d="m 11253,7501 c -134,-47 -213,-104 -275,-200 -51,-81 -32,-214 40,-283 74,-72 189,-109 225,-73 24,23 26,83 4,97 -7,4 -27,8 -46,8 -37,0 -93,30 -116,63 -22,31 -20,124 4,164 37,60 196,132 305,139 136,8 216,-45 216,-143 0,-48 -10,-72 -46,-116 -13,-16 -24,-37 -24,-46 0,-21 43,-71 61,-71 26,0 105,96 119,143 23,84 1,189 -55,255 -39,46 -88,69 -179,81 -113,16 -142,14 -233,-18 z"
       id="path59"
       style="fill:#000080;stroke-width:5.07686" />
    <path
       d="m 210,6911 c -16,-31 -12,-59 13,-75 12,-8 76,-24 142,-36 66,-11 123,-26 127,-33 11,-18 -10,-176 -31,-230 -14,-36 -32,-42 -84,-29 -85,22 -218,34 -233,21 -21,-17 -18,-86 4,-93 34,-11 658,-96 703,-96 48,0 59,9 59,51 0,34 -45,51 -172,66 -67,8 -128,19 -135,25 -27,22 -7,233 25,264 18,18 105,13 203,-12 31,-8 75,-14 98,-14 h 41 v 49 c 0,34 -5,51 -15,55 -8,3 -70,12 -137,21 -197,25 -551,75 -575,80 -15,4 -26,-1 -33,-14 z"
       id="path61"
       style="fill:#000080;stroke-width:5.07686" />
    <path
       d="m 11409,6806 c -169,-34 -314,-68 -323,-75 -16,-14 -21,-57 -8,-77 13,-21 48,-24 102,-9 77,21 114,28 370,75 240,45 266,55 255,100 -10,38 -24,50 -59,49 -17,-1 -169,-29 -337,-63 z"
       id="path63"
       style="fill:#000080;stroke-width:5.07686" />
    <path
       d="m 11715,6529 c -37,-6 -583,-59 -610,-59 -10,0 22,-412 35,-446 7,-19 17,-24 43,-24 63,0 68,27 41,223 -22,151 -22,151 112,155 53,2 100,0 104,-5 5,-4 14,-62 20,-128 6,-65 13,-129 16,-142 7,-25 60,-48 89,-37 16,6 17,20 10,165 -8,178 -11,171 77,184 55,8 84,1 99,-26 6,-11 17,-82 24,-157 12,-119 17,-139 36,-154 24,-20 29,-21 48,-9 12,8 12,37 2,192 -7,101 -16,202 -21,223 -13,58 -25,62 -125,45 z"
       id="path65"
       style="fill:#000080;stroke-width:5.07686" />
    <path
       d="m 601,6185 c -29,-9 -66,-24 -81,-35 -28,-20 -116,-179 -140,-252 -31,-99 -146,-86 -166,18 -10,56 13,115 53,135 50,25 63,39 63,70 0,32 -23,59 -51,59 -56,0 -155,-85 -186,-159 -36,-85 -10,-178 67,-244 76,-64 178,-74 264,-23 41,24 51,39 108,153 93,188 136,219 203,149 42,-45 61,-115 41,-154 -20,-38 -76,-88 -111,-99 -32,-10 -42,-35 -31,-79 11,-43 40,-48 105,-19 110,50 153,118 153,245 0,113 -34,171 -127,218 -58,29 -102,33 -164,17 z"
       id="path67"
       style="fill:#000080;stroke-width:5.07686" />
    <path
       d="m 11175,5851 c -25,-5 -31,-12 -33,-38 -4,-40 -2,-40 243,-48 204,-7 225,-10 225,-29 0,-17 -40,-52 -70,-61 -14,-4 -95,-42 -180,-85 -85,-42 -169,-81 -187,-87 -40,-14 -61,-71 -44,-116 l 11,-28 103,2 c 56,1 215,-2 352,-5 158,-5 255,-4 264,2 8,6 14,25 14,42 0,17 -6,36 -14,41 -8,5 -88,9 -179,9 -201,1 -245,8 -245,35 0,16 41,41 194,120 229,118 251,134 258,192 5,41 5,42 -28,47 -51,8 -649,14 -684,7 z"
       id="path69"
       style="fill:#000080;stroke-width:5.07686" />
    <path
       d="m 810,5580 c -8,-5 -37,-17 -65,-26 -27,-9 -57,-22 -65,-29 -16,-12 -176,-79 -220,-91 -24,-6 -270,-112 -318,-136 -18,-9 -22,-20 -22,-54 0,-67 3,-69 180,-109 63,-14 219,-53 345,-86 127,-34 240,-64 253,-67 22,-4 23,-2 20,48 -3,60 -2,59 -108,92 l -75,23 -8,110 c -9,118 -4,175 17,175 7,0 41,14 74,31 64,31 77,51 70,100 -2,18 -10,25 -33,27 -16,1 -37,-2 -45,-8 z M 613,5307 c 4,-29 3,-63 -3,-87 -9,-35 -14,-40 -41,-40 -16,0 -55,7 -87,15 -31,8 -74,17 -95,20 -42,7 -57,29 -35,51 20,21 209,94 233,91 15,-1 21,-13 28,-50 z"
       id="path71"
       style="fill:#000080;stroke-width:5.07686" />
    <path
       d="m 11295,5155 c -88,-15 -141,-42 -187,-93 -45,-49 -62,-100 -62,-178 0,-74 32,-135 97,-187 62,-50 74,-52 108,-18 35,36 38,68 6,80 -33,13 -72,61 -92,115 -17,43 -17,46 1,77 28,46 91,87 156,101 49,10 67,9 145,-10 129,-32 193,-67 221,-122 33,-67 30,-122 -11,-167 -19,-20 -49,-41 -68,-47 -39,-13 -48,-40 -29,-87 10,-23 19,-29 42,-29 66,0 144,63 169,137 18,53 17,189 -3,234 -39,88 -130,149 -282,189 -90,23 -113,23 -211,5 z"
       id="path73"
       style="fill:#000080;stroke-width:5.07686" />
    <path
       d="M 830,4864 C 726,4759 563,4621 535,4614 c -13,-3 -59,11 -116,36 -170,76 -203,89 -212,83 -9,-5 -2,-52 15,-95 8,-23 40,-42 172,-106 88,-44 169,-89 180,-100 18,-21 18,-21 -5,-31 -13,-6 -73,-22 -133,-36 -120,-28 -136,-36 -136,-70 0,-70 21,-71 301,-5 459,108 459,108 459,155 0,35 -23,48 -77,41 -199,-24 -237,-19 -291,37 l -32,33 71,54 c 115,87 229,199 229,224 0,28 -29,116 -39,116 -3,0 -45,-39 -91,-86 z"
       id="path75"
       style="fill:#000080;stroke-width:5.07686" />
    <path
       d="m 10973,4519 c -7,-7 -13,-25 -13,-41 0,-15 -6,-42 -14,-60 -14,-33 -49,-168 -69,-267 -11,-52 -10,-54 17,-77 15,-13 35,-24 45,-24 17,0 51,56 51,86 0,9 12,49 26,90 14,41 23,83 19,94 -9,30 27,60 73,60 88,0 185,-57 164,-97 -12,-21 -62,-223 -62,-247 0,-22 69,-52 88,-39 16,10 72,193 72,235 0,49 25,61 108,54 40,-3 78,-8 83,-12 16,-9 10,-48 -27,-194 -28,-110 -33,-144 -24,-155 16,-20 80,-39 91,-28 5,5 23,60 40,123 54,203 68,255 74,277 9,28 -15,40 -160,83 -91,27 -477,130 -550,147 -11,2 -26,-1 -32,-8 z"
       id="path77"
       style="fill:#000080;stroke-width:5.07686" />
    <path
       d="m 828,4195 c -15,-8 -29,-23 -32,-32 -7,-24 45,-174 65,-186 21,-13 109,20 109,41 0,16 -44,142 -60,173 -13,22 -44,24 -82,4 z"
       id="path79"
       style="fill:#000080;stroke-width:5.07686" />
    <path
       d="m 1109,3930 c -20,-11 -117,-50 -215,-89 -99,-38 -217,-85 -264,-104 -47,-19 -93,-37 -104,-41 -15,-5 -17,-13 -13,-43 4,-20 15,-46 26,-57 l 21,-20 27,21 c 16,11 40,24 53,28 14,4 108,40 210,80 102,40 220,84 262,100 104,36 132,58 124,98 -4,17 -12,35 -19,39 -21,13 -70,8 -108,-12 z"
       id="path81"
       style="fill:#000080;stroke-width:5.07686" />
    <path
       d="m 10835,3891 c -49,-22 -100,-78 -131,-145 -46,-98 -42,-154 16,-234 58,-80 146,-114 256,-97 44,6 57,16 155,111 94,92 111,104 142,104 44,0 57,-16 64,-82 5,-49 3,-57 -29,-98 -31,-41 -38,-45 -82,-48 -44,-3 -49,-6 -62,-39 -20,-46 -13,-59 33,-73 149,-45 304,170 237,328 -33,80 -99,125 -185,125 -76,0 -139,-36 -234,-136 l -76,-79 -51,4 c -67,7 -88,31 -88,103 0,88 65,155 151,155 48,0 70,19 72,60 2,27 -3,37 -23,47 -36,18 -118,16 -165,-6 z"
       id="path83"
       style="fill:#000080;stroke-width:5.07686" />
    <path
       d="m 1028,3635 c -37,-25 -38,-26 -24,-58 54,-127 70,-157 83,-157 23,0 77,26 92,44 14,17 8,37 -53,166 -16,34 -53,36 -98,5 z"
       id="path85"
       style="fill:#000080;stroke-width:5.07686" />
    <path
       d="m 1370,3418 c -18,-29 -48,-76 -67,-105 -19,-28 -43,-73 -53,-99 -23,-62 -39,-73 -82,-55 -119,48 -110,47 -171,17 -69,-33 -144,-106 -155,-149 -13,-48 2,-101 59,-212 61,-120 117,-205 133,-205 7,0 42,18 77,41 111,71 493,298 527,314 41,19 44,60 7,95 -21,20 -29,22 -43,13 -17,-12 -232,-144 -244,-150 -14,-7 -48,66 -48,104 0,38 71,195 105,233 8,9 24,37 35,63 l 21,46 -23,48 c -13,26 -28,49 -34,50 -6,2 -26,-20 -44,-49 z m -258,-339 c 24,-10 109,-134 122,-177 10,-29 -4,-46 -78,-94 -89,-57 -98,-54 -146,47 -46,97 -50,138 -17,186 29,43 76,58 119,38 z"
       id="path87"
       style="fill:#000080;stroke-width:5.07686" />
    <path
       d="m 10391,3451 c -20,-36 59,-121 156,-170 53,-27 64,-26 91,2 29,31 28,51 -5,77 -24,18 -36,21 -79,16 -56,-6 -65,-2 -108,57 -31,42 -41,45 -55,18 z"
       id="path89"
       style="fill:#000080;stroke-width:5.07686" />
    <path
       d="m 10209,2833 c -77,-72 -102,-121 -107,-214 l -5,-78 59,-61 c 75,-78 100,-91 179,-91 74,0 95,9 219,98 48,34 97,63 109,63 30,0 87,-47 87,-73 0,-34 -57,-126 -91,-146 -25,-15 -36,-17 -65,-8 -30,9 -37,8 -59,-13 -37,-35 -34,-75 6,-89 47,-16 119,-13 164,8 47,21 98,76 121,129 21,50 22,158 1,199 -26,49 -130,113 -184,113 -38,0 -111,-36 -222,-108 -51,-34 -102,-62 -112,-62 -10,0 -34,14 -54,31 -33,29 -35,35 -35,90 0,56 2,61 41,99 50,48 79,57 137,41 51,-13 59,-10 77,33 25,60 -20,86 -148,86 -67,0 -68,-1 -118,-47 z"
       id="path91"
       style="fill:#000080;stroke-width:5.07686" />
    <path
       d="m 1720,2851 c -19,-10 -36,-27 -38,-37 -2,-12 33,-64 89,-134 50,-63 95,-124 101,-135 10,-17 1,-28 -63,-87 -77,-71 -100,-80 -124,-50 -59,72 -135,166 -159,197 l -29,38 -34,-36 c -36,-40 -42,-67 -17,-88 9,-8 41,-45 70,-84 30,-38 64,-82 76,-97 l 22,-28 -25,-26 c -36,-39 -99,-84 -119,-84 -19,0 -148,147 -174,199 -9,16 -26,37 -38,46 -22,15 -24,14 -55,-19 -18,-20 -33,-39 -33,-43 0,-10 124,-174 208,-276 l 63,-77 29,17 c 32,19 171,128 403,316 92,75 157,135 157,145 0,21 -11,37 -123,180 -49,63 -98,129 -109,148 -23,39 -31,41 -78,15 z"
       id="path93"
       style="fill:#000080;stroke-width:5.07686" />
    <path
       d="m 1873,2119 c -150,-143 -263,-258 -263,-268 0,-20 40,-61 59,-61 8,0 61,43 118,96 l 105,96 60,-58 c 32,-33 70,-76 85,-97 24,-34 25,-40 13,-63 -8,-14 -51,-61 -97,-105 -46,-44 -83,-86 -83,-93 0,-18 48,-76 62,-76 6,0 99,84 207,188 108,103 229,217 269,253 39,37 72,72 72,79 0,19 -40,70 -55,70 -8,0 -42,-24 -75,-52 -128,-110 -175,-148 -183,-148 -27,0 -167,158 -167,188 0,8 47,63 105,122 67,68 105,114 105,127 0,23 -34,53 -60,53 -8,-1 -133,-113 -277,-251 z"
       id="path95"
       style="fill:#000080;stroke-width:5.07686" />
    <path
       d="m 9827,2326 c -20,-7 -45,-20 -55,-27 -39,-30 -82,-74 -82,-85 0,-6 -9,-23 -20,-37 -18,-23 -28,-53 -47,-150 -4,-20 2,-38 21,-66 39,-55 171,-171 195,-171 25,0 171,139 171,163 0,19 -48,77 -64,77 -6,0 -32,-20 -56,-45 -24,-25 -52,-45 -62,-45 -24,0 -68,68 -68,105 1,74 85,178 156,191 74,14 198,-60 290,-173 56,-68 70,-120 54,-191 -9,-40 -22,-64 -51,-93 -40,-40 -53,-44 -134,-40 -33,2 -45,-3 -70,-29 -34,-35 -29,-55 21,-80 41,-21 150,-19 192,4 46,24 118,101 142,151 27,57 27,165 -1,239 -40,109 -150,225 -274,289 -51,27 -201,34 -258,13 z"
       id="path97"
       style="fill:#000080;stroke-width:5.07686" />
    <path
       d="m 9403,1908 c -43,-49 -46,-44 94,-205 35,-40 63,-77 63,-81 0,-5 -13,-21 -29,-36 -46,-44 -104,-38 -258,24 -68,27 -135,50 -148,50 -13,0 -40,-14 -60,-31 -29,-26 -33,-34 -23,-46 23,-29 266,-123 315,-123 21,0 24,-3 19,-22 -3,-13 -9,-63 -12,-113 -6,-89 -6,-90 24,-128 57,-71 119,-107 185,-107 35,0 55,8 101,40 109,77 256,202 249,214 -12,20 -165,218 -248,321 -45,55 -103,127 -129,160 -80,100 -85,105 -104,105 -10,0 -28,-10 -39,-22 z m 265,-422 c 45,-51 92,-123 92,-139 0,-8 -21,-29 -47,-46 -27,-17 -58,-41 -71,-53 -29,-30 -109,-32 -140,-5 -34,31 -51,76 -40,108 11,31 144,169 163,169 7,0 26,-15 43,-34 z"
       id="path99"
       style="fill:#000080;stroke-width:5.07686" />
    <path
       d="m 2530,1817 c -60,-30 -68,-38 -99,-99 -57,-112 -55,-130 33,-300 83,-159 84,-167 32,-202 -43,-28 -84,-21 -126,22 -33,33 -37,44 -43,106 -7,71 -22,100 -58,109 -25,7 -46,-15 -59,-61 -25,-93 -4,-157 78,-234 151,-142 362,-50 362,157 0,42 -7,57 -109,249 -17,32 -31,64 -31,70 0,7 22,33 49,60 l 49,48 62,-33 c 90,-48 117,-102 89,-175 -14,-37 -4,-70 26,-90 35,-23 60,-10 84,46 43,100 21,183 -74,276 -54,52 -120,84 -175,84 -14,0 -55,-15 -90,-33 z"
       id="path101"
       style="fill:#000080;stroke-width:5.07686" />
    <path
       d="m 4085,1311 c -9,-16 -169,-513 -220,-683 -26,-87 -45,-172 -43,-190 3,-27 8,-33 38,-41 19,-5 40,-13 45,-17 26,-22 298,-124 436,-164 379,-111 614,-155 1101,-206 54,-5 303,-10 555,-10 535,0 590,5 1056,85 404,69 557,112 1069,293 67,24 73,32 58,79 -7,21 -53,125 -101,231 -49,106 -89,194 -89,197 0,3 -128,289 -167,373 -8,17 -22,32 -31,32 -9,0 -110,-27 -226,-59 -512,-145 -852,-215 -1211,-252 -157,-16 -575,-16 -740,0 -309,30 -607,73 -754,110 -283,72 -621,176 -698,216 -32,17 -69,20 -78,6 z"
       id="path103"
       style="fill:#000080;stroke-width:5.07686" />
  </g>
</svg>
